# xmcd CD database file
#
# Track frame offsets:
#	150
#	14602
#	34391
#	49820
#	66237
#	81333
#	83697
#	101393
#	118361
#	137884
#	156582
#	165337
#	183993
#	199627
#	221295
#	240008
#	255100
#
# Disc length: 3649 seconds
#
# Revision: 3
# Processed by: cddbd v1.5.2PL0 Copyright (c) Steve Scherf et al.
# Submitted via: CDex 1.70beta2
#
DISCID=df0e3f11
DTITLE=윤하 - Someday
DYEAR=2008
DGENRE=Rock
TTITLE0=Gossip Boy
TTITLE1=기억 (Feat.타블로) - Rap Mix ver.
TTITLE2=Hero
TTITLE3=Someday
TTITLE4=텔레파시
TTITLE5=Rain and The Bar
TTITLE6=빗소리
TTITLE7=Rainbow
TTITLE8=Best Friend
TTITLE9=Strawberry Days
TTITLE10=For Catharina
TTITLE11=미워하다
TTITLE12=My Song and…
TTITLE13=울지마요
TTITLE14=기억 - Original Mix ver.
TTITLE15=텔레파시 (Instrumental)
TTITLE16=미워하다 (Instrumental)
EXTD=YEAR: 2008
EXTT0=
EXTT1=
EXTT2=
EXTT3=
EXTT4=
EXTT5=
EXTT6=
EXTT7=
EXTT8=
EXTT9=
EXTT10=
EXTT11=
EXTT12=
EXTT13=
EXTT14=
EXTT15=
EXTT16=
PLAYORDER=
